<svg width="42" height="41" viewBox="0 0 42 41" fill="none" xmlns="http://www.w3.org/2000/svg">
<path d="M14.2795 5.68363C16.3948 -0.826694 25.6052 -0.826694 27.7205 5.68363C28.6665 8.59513 31.3797 10.5664 34.441 10.5664C41.2864 10.5664 44.1326 19.326 38.5945 23.3496C36.1179 25.149 35.0815 28.3385 36.0275 31.25C38.1429 37.7603 30.6915 43.174 25.1535 39.1504C22.6768 37.351 19.3232 37.351 16.8465 39.1504C11.3085 43.174 3.85713 37.7603 5.97246 31.25C6.91847 28.3385 5.88213 25.149 3.40545 23.3496C-2.13256 19.326 0.713604 10.5664 7.55896 10.5664C10.6203 10.5664 13.3335 8.59513 14.2795 5.68363Z" fill="black"/>
</svg>
