<svg width="68" height="67" viewBox="0 0 68 67" fill="none" xmlns="http://www.w3.org/2000/svg">
<path d="M56.3435 22.3334H0.856934V39.0834H56.3435V22.3334Z" fill="#468FF1"/>
<path d="M56.3435 0H0.856934V16.75H56.3435V0Z" fill="#61C5FA"/>
<path d="M53.5691 16.75H3.63123V22.3333H53.5691V16.75Z" fill="#3870CF"/>
<path d="M53.5691 39.0834H3.63123V44.6667H53.5691V39.0834Z" fill="#3870CF"/>
<path d="M9.17991 11.1667C10.7121 11.1667 11.9542 9.91684 11.9542 8.37504C11.9542 6.83325 10.7121 5.58337 9.17991 5.58337C7.64769 5.58337 6.40558 6.83325 6.40558 8.37504C6.40558 9.91684 7.64769 11.1667 9.17991 11.1667Z" fill="white"/>
<path d="M20.2773 11.1667C21.8095 11.1667 23.0516 9.91684 23.0516 8.37504C23.0516 6.83325 21.8095 5.58337 20.2773 5.58337C18.745 5.58337 17.5029 6.83325 17.5029 8.37504C17.5029 9.91684 18.745 11.1667 20.2773 11.1667Z" fill="white"/>
<path d="M9.17991 33.5C10.7121 33.5 11.9542 32.2501 11.9542 30.7083C11.9542 29.1665 10.7121 27.9166 9.17991 27.9166C7.64769 27.9166 6.40558 29.1665 6.40558 30.7083C6.40558 32.2501 7.64769 33.5 9.17991 33.5Z" fill="white"/>
<path d="M20.2773 33.5C21.8095 33.5 23.0516 32.2501 23.0516 30.7083C23.0516 29.1665 21.8095 27.9166 20.2773 27.9166C18.745 27.9166 17.5029 29.1665 17.5029 30.7083C17.5029 32.2501 18.745 33.5 20.2773 33.5Z" fill="white"/>
<path d="M48.0205 67C58.7461 67 67.4408 58.2509 67.4408 47.4583C67.4408 36.6657 58.7461 27.9166 48.0205 27.9166C37.295 27.9166 28.6003 36.6657 28.6003 47.4583C28.6003 58.2509 37.295 67 48.0205 67Z" fill="black"/>
<path d="M53.5692 37.8412V47.4585L48.0206 50.2501L42.4719 47.4585V37.8412C40.7872 38.8101 39.3869 40.21 38.413 41.8989C37.439 43.5879 36.9261 45.5058 36.9261 47.4585C36.9261 49.4111 37.439 51.3291 38.413 53.018C39.3869 54.707 40.7872 56.1068 42.4719 57.0758V66.1906C46.0931 67.2709 49.948 67.2709 53.5692 66.1906V57.0758C55.254 56.1068 56.6543 54.707 57.6282 53.018C58.6021 51.3291 59.1151 49.4111 59.1151 47.4585C59.1151 45.5058 58.6021 43.5879 57.6282 41.8989C56.6543 40.21 55.254 38.8101 53.5692 37.8412Z" fill="white"/>
</svg>
