<svg width="106" height="12" viewBox="0 0 106 12" fill="none" xmlns="http://www.w3.org/2000/svg">
<path d="M1.97869 11H0.348011L4.01207 0.818182H5.78693L9.45099 11H7.82031L4.94176 2.66761H4.86222L1.97869 11ZM2.25213 7.01278H7.5419V8.3054H2.25213V7.01278ZM14.9776 0.818182V11H13.4413V0.818182H14.9776ZM25.9599 11V0.818182H29.6886C30.4111 0.818182 31.0093 0.9375 31.4833 1.17614C31.9573 1.41146 32.3119 1.7313 32.5472 2.13565C32.7825 2.53669 32.9002 2.98911 32.9002 3.4929C32.9002 3.91714 32.8223 4.27509 32.6665 4.56676C32.5108 4.85511 32.302 5.08712 32.0401 5.26278C31.7816 5.43513 31.4966 5.56108 31.185 5.64062V5.74006C31.5231 5.75663 31.8528 5.866 32.1743 6.06818C32.4992 6.26705 32.7676 6.55043 32.9797 6.91832C33.1919 7.28622 33.2979 7.73366 33.2979 8.26065C33.2979 8.78101 33.1753 9.24834 32.93 9.66264C32.6881 10.0736 32.3136 10.4001 31.8064 10.642C31.2993 10.8807 30.6514 11 29.8626 11H25.9599ZM27.4961 9.68253H29.7134C30.4492 9.68253 30.9762 9.54001 31.2944 9.25497C31.6126 8.96993 31.7716 8.61364 31.7716 8.18608C31.7716 7.86458 31.6904 7.5696 31.528 7.30114C31.3656 7.03267 31.1336 6.81889 30.832 6.6598C30.5337 6.50071 30.1791 6.42116 29.7681 6.42116H27.4961V9.68253ZM27.4961 5.22301H29.5543C29.899 5.22301 30.2089 5.15672 30.484 5.02415C30.7624 4.89157 30.9828 4.70597 31.1452 4.46733C31.3109 4.22538 31.3938 3.94034 31.3938 3.61222C31.3938 3.19129 31.2463 2.8383 30.9513 2.55327C30.6564 2.26823 30.2039 2.12571 29.5941 2.12571H27.4961V5.22301ZM39.1762 0.818182V11H37.64V0.818182H39.1762ZM50.8241 4.0348C50.728 3.73319 50.5987 3.46307 50.4363 3.22443C50.2772 2.98248 50.0866 2.77699 49.8646 2.60795C49.6425 2.43561 49.3889 2.30469 49.1039 2.2152C48.8222 2.12571 48.5123 2.08097 48.1742 2.08097C47.6008 2.08097 47.0838 2.22846 46.6231 2.52344C46.1624 2.81842 45.7978 3.25095 45.5293 3.82102C45.2642 4.38778 45.1316 5.08215 45.1316 5.90412C45.1316 6.7294 45.2658 7.42708 45.5343 7.99716C45.8028 8.56723 46.1707 8.99976 46.638 9.29474C47.1053 9.58973 47.6373 9.73722 48.2339 9.73722C48.7874 9.73722 49.2696 9.62453 49.6806 9.39915C50.0949 9.17377 50.4147 8.85559 50.6401 8.4446C50.8688 8.0303 50.9832 7.54309 50.9832 6.98295L51.3809 7.05753H48.4675V5.78977H52.4697V6.94815C52.4697 7.80327 52.2874 8.54569 51.9228 9.17543C51.5615 9.80185 51.0611 10.2857 50.4214 10.6271C49.785 10.9685 49.0558 11.1392 48.2339 11.1392C47.3125 11.1392 46.5038 10.9271 45.8077 10.5028C45.115 10.0786 44.5748 9.47704 44.187 8.69815C43.7992 7.91596 43.6053 6.98793 43.6053 5.91406C43.6053 5.10204 43.718 4.37287 43.9434 3.72656C44.1688 3.08026 44.4853 2.53172 44.893 2.08097C45.304 1.62689 45.7862 1.28054 46.3397 1.0419C46.8965 0.799952 47.5047 0.678977 48.1643 0.678977C48.7145 0.678977 49.2265 0.76018 49.7005 0.922585C50.1778 1.08499 50.602 1.31534 50.9732 1.61364C51.3477 1.91193 51.6576 2.26657 51.9029 2.67756C52.1482 3.08523 52.3139 3.53764 52.4001 4.0348H50.8241ZM66.461 11H63.1649V0.818182H66.5654C67.5631 0.818182 68.4198 1.02202 69.1357 1.42969C69.8516 1.83404 70.4002 2.41572 70.7813 3.17472C71.1658 3.9304 71.358 4.83688 71.358 5.89418C71.358 6.95478 71.1641 7.86624 70.7764 8.62855C70.3919 9.39086 69.8351 9.97751 69.1059 10.3885C68.3767 10.7962 67.4951 11 66.461 11ZM64.7011 9.65767H66.3765C67.1521 9.65767 67.7967 9.51184 68.3105 9.22017C68.8242 8.92519 69.2087 8.49929 69.4639 7.94247C69.7191 7.38234 69.8467 6.69957 69.8467 5.89418C69.8467 5.09541 69.7191 4.41761 69.4639 3.8608C69.212 3.30398 68.8358 2.88139 68.3353 2.59304C67.8348 2.30469 67.2134 2.16051 66.471 2.16051H64.7011V9.65767ZM76.1426 11H74.5119L78.176 0.818182H79.9508L83.6149 11H81.9842L79.1057 2.66761H79.0261L76.1426 11ZM76.416 7.01278H81.7058V8.3054H76.416V7.01278ZM85.9 2.14062V0.818182H93.78V2.14062H90.6031V11H89.0719V2.14062H85.9ZM97.6982 11H96.0675L99.7316 0.818182H101.506L105.171 11H103.54L100.661 2.66761H100.582L97.6982 11ZM97.9717 7.01278H103.261V8.3054H97.9717V7.01278Z" fill="url(#paint0_linear_2007_411)"/>
<defs>
<linearGradient id="paint0_linear_2007_411" x1="81.0929" y1="3" x2="102.857" y2="25.8297" gradientUnits="userSpaceOnUse">
<stop stop-color="white"/>
<stop offset="1" stop-color="#757A8C" stop-opacity="0"/>
</linearGradient>
</defs>
</svg>
