<svg width="58" height="57" viewBox="0 0 58 57" fill="none" xmlns="http://www.w3.org/2000/svg">
<g clip-path="url(#clip0_2004_147)">
<path d="M19.7144 21.375C30.1426 21.375 38.5964 18.185 38.5964 14.25C38.5964 10.315 30.1426 7.125 19.7144 7.125C9.28615 7.125 0.832397 10.315 0.832397 14.25C0.832397 18.185 9.28615 21.375 19.7144 21.375Z" fill="#61C5FA"/>
<path d="M38.5964 14.25V28.5C38.5964 32.4425 30.1467 35.625 19.7144 35.625C9.28209 35.625 0.832397 32.4425 0.832397 28.5V14.25C0.832397 18.1925 9.28209 21.375 19.7144 21.375C30.1467 21.375 38.5964 18.1925 38.5964 14.25Z" fill="#468FF1"/>
<path d="M7.9131 28.5C9.21663 28.5 10.2734 27.4367 10.2734 26.125C10.2734 24.8133 9.21663 23.75 7.9131 23.75C6.60958 23.75 5.55286 24.8133 5.55286 26.125C5.55286 27.4367 6.60958 28.5 7.9131 28.5Z" fill="white"/>
<path d="M38.5964 28.5V42.75C38.5964 46.6925 30.1467 49.875 19.7144 49.875C9.28209 49.875 0.832397 46.6925 0.832397 42.75V28.5C0.832397 32.4425 9.28209 35.625 19.7144 35.625C30.1467 35.625 38.5964 32.4425 38.5964 28.5Z" fill="#3870CF"/>
<path d="M7.9131 42.75C9.21663 42.75 10.2734 41.6867 10.2734 40.375C10.2734 39.0633 9.21663 38 7.9131 38C6.60958 38 5.55286 39.0633 5.55286 40.375C5.55286 41.6867 6.60958 42.75 7.9131 42.75Z" fill="white"/>
<path d="M48.6911 26.125H38.5963V30.875H48.6911C49.2107 31.7806 50.0127 32.4883 50.9727 32.8884C51.9328 33.2886 52.9972 33.3588 54.0009 33.0881C55.0047 32.8175 55.8916 32.2212 56.5242 31.3916C57.1568 30.5621 57.4997 29.5456 57.4997 28.5C57.4997 27.4544 57.1568 26.4379 56.5242 25.6084C55.8916 24.7788 55.0047 24.1825 54.0009 23.9119C52.9972 23.6412 51.9328 23.7114 50.9727 24.1116C50.0127 24.5117 49.2107 25.2195 48.6911 26.125Z" fill="black"/>
<path d="M38.5963 38V42.75H50.3976V48.1579C49.4976 48.6807 48.7943 49.4877 48.3966 50.4537C47.999 51.4198 47.9292 52.4909 48.1982 53.5009C48.4671 54.5109 49.0597 55.4034 49.8841 56.0399C50.7086 56.6765 51.7187 57.0215 52.7578 57.0215C53.7969 57.0215 54.8071 56.6765 55.6315 56.0399C56.4559 55.4034 57.0485 54.5109 57.3175 53.5009C57.5864 52.4909 57.5166 51.4198 57.119 50.4537C56.7213 49.4877 56.018 48.6807 55.1181 48.1579V38H38.5963Z" fill="black"/>
<path d="M50.3976 8.84214V14.25H38.5963V19H55.1181V8.84214C56.018 8.31932 56.7213 7.5123 57.119 6.54626C57.5166 5.58022 57.5864 4.50913 57.3175 3.49913C57.0485 2.48912 56.4559 1.59663 55.6315 0.960087C54.8071 0.323543 53.7969 -0.0214844 52.7578 -0.0214844C51.7187 -0.0214844 50.7086 0.323543 49.8841 0.960087C49.0597 1.59663 48.4671 2.48912 48.1982 3.49913C47.9292 4.50913 47.999 5.58022 48.3966 6.54626C48.7943 7.5123 49.4976 8.31932 50.3976 8.84214Z" fill="black"/>
</g>
<defs>
<clipPath id="clip0_2004_147">
<rect width="56.646" height="57" fill="white" transform="translate(0.832397)"/>
</clipPath>
</defs>
</svg>
