<svg width="1728" height="841" viewBox="0 0 1728 841" fill="none" xmlns="http://www.w3.org/2000/svg">
<mask id="mask0_2004_74" style="mask-type:alpha" maskUnits="userSpaceOnUse" x="0" y="0" width="1728" height="841">
<rect width="1728" height="841" fill="#D9D9D9"/>
</mask>
<g mask="url(#mask0_2004_74)">
<g filter="url(#filter0_d_2004_74)">
<path d="M1493.61 559.768C1832.41 380.583 1710.2 312.288 1758.08 513.771C1761.59 586.135 1733.67 739.36 1567.88 611.407C1543.63 592.691 1519.11 575.354 1493.61 559.768C1429.22 593.818 1348.19 631.872 1246.19 672.84C904.645 810.011 636.107 762.538 431.246 672.549C-235.62 931.774 -191.103 494.453 -62.2948 416.28C10.6823 371.99 168.649 557.198 431.246 672.549C436.944 670.334 442.693 668.069 448.494 665.752C1053.22 424.238 1301.19 442.159 1493.61 559.768Z" fill="url(#paint0_linear_2004_74)" shape-rendering="crispEdges"/>
<path d="M1243.67 678.157C903.729 813.475 635.852 766.444 431.158 676.876L431.153 676.877L431.151 676.876C264.95 741.321 142.557 762.655 54.4194 756.852C-34.1003 751.024 -88.3466 717.775 -117.26 673.113C-146.082 628.594 -149.235 573.491 -137.181 524.794C-125.243 476.566 -98.1774 433.792 -65.1515 413.339L-64.3701 412.86C-44.3385 400.703 -19.11 404.717 10.3021 417.76C39.8581 430.866 74.9432 453.68 115.612 481.238C196.829 536.273 301.152 610.809 431.341 668.219C435.097 666.755 438.876 665.27 442.677 663.762L447.011 662.038C1049.92 421.251 1299.87 437.577 1493.74 555.169C1577.14 510.935 1632.24 473.564 1668.69 445.485C1687.06 431.334 1700.71 419.529 1710.87 410.373C1720.89 401.349 1727.88 394.559 1732.43 390.9C1733.61 389.955 1734.73 389.13 1735.78 388.488C1736.8 387.866 1737.98 387.28 1739.24 387.016C1740.59 386.732 1742.21 386.796 1743.72 387.725C1745.13 388.594 1745.92 389.896 1746.38 390.982C1747.24 393.026 1747.56 395.833 1747.75 398.804C1747.96 401.923 1748.06 405.912 1748.2 410.641C1748.75 429.325 1750.04 461.802 1761.42 510.514L1761.97 512.847L1762.05 513.208L1762.07 513.577C1762.96 531.953 1761.86 555.444 1757.07 578.368C1752.29 601.233 1743.75 623.925 1729.48 640.332C1715.06 656.927 1694.89 666.919 1667.65 664.289C1640.69 661.687 1607.15 646.765 1565.44 614.573L1560.9 611.093C1538.83 594.245 1516.53 578.581 1493.45 564.37C1429.26 598.219 1348.74 635.965 1247.68 676.552L1243.67 678.157Z" stroke="white" stroke-width="8" shape-rendering="crispEdges"/>
</g>
<g filter="url(#filter1_d_2004_74)">
<path d="M171.466 230.793C-148.848 361.036 -32.8184 480.266 -70 281.345C-70 208.896 -34.6808 57.2062 124.708 193.048C140.077 206.147 155.595 218.767 171.466 230.793C241.241 202.422 331.721 173.528 449 147.286C786.067 71.8658 1042.24 128.048 1236.34 215.303C1239.36 214.272 1242.38 213.235 1245.41 212.192C1942.74 -27.7958 1877.08 413.691 1743.5 486.14C1664.86 528.793 1514.21 340.21 1236.34 215.303C599.612 433.109 360.446 373.995 171.466 230.793Z" fill="url(#paint1_linear_2004_74)" shape-rendering="crispEdges"/>
<path d="M452.084 142.503C787.302 68.3785 1042.67 124.152 1236.54 211.007C1239.05 210.145 1241.58 209.28 1244.11 208.409L1248.19 207.009C1420.7 148.046 1546.68 130.8 1636.6 139.582C1727.32 148.443 1781.63 183.865 1809.47 229.933C1837.23 275.861 1838.19 331.567 1823.93 380.149C1809.8 428.262 1780.49 470.221 1746.22 489.211L1745.41 489.655C1724.01 501.262 1698.29 496.777 1668.48 483.013C1638.58 469.205 1603.4 445.51 1562.34 416.836C1480.33 359.557 1373.97 281.763 1236.14 219.599C918.404 328.176 699.325 367.892 535.864 362.424C372.968 356.975 265.483 306.658 170.871 235.357C12.9969 299.913 -37.0844 361.39 -52.2246 381.883C-54.0796 384.394 -55.621 386.585 -56.6406 387.905C-57.1411 388.553 -57.7374 389.289 -58.3574 389.84C-58.6484 390.098 -59.2224 390.574 -60.0273 390.873C-60.9728 391.225 -62.5074 391.401 -63.9561 390.422C-65.1382 389.623 -65.5673 388.493 -65.7188 388.023C-65.8992 387.465 -65.9695 386.926 -66.0049 386.541C-66.0769 385.756 -66.0659 384.816 -66.0342 383.865C-65.9723 382.008 -65.7782 379.016 -65.625 375.507C-65.0026 361.247 -64.7071 332.402 -73.5059 284.382L-73.9316 282.08L-74 281.716V281.346C-74 262.948 -71.7623 239.539 -65.8623 216.874C-59.9774 194.268 -50.3494 172.015 -35.3047 156.319C-20.088 140.444 0.539295 131.442 27.6201 135.39C54.4179 139.296 87.2013 155.827 127.303 190.004L130.178 192.446C143.974 204.136 157.89 215.423 172.075 226.23C241.796 198.039 331.848 169.401 448.127 143.383L452.084 142.503Z" stroke="white" stroke-width="8" shape-rendering="crispEdges"/>
</g>
</g>
<defs>
<filter id="filter0_d_2004_74" x="-172.8" y="357.868" width="1964.15" height="433.934" filterUnits="userSpaceOnUse" color-interpolation-filters="sRGB">
<feFlood flood-opacity="0" result="BackgroundImageFix"/>
<feColorMatrix in="SourceAlpha" type="matrix" values="0 0 0 0 0 0 0 0 0 0 0 0 0 0 0 0 0 0 127 0" result="hardAlpha"/>
<feOffset/>
<feGaussianBlur stdDeviation="12.5"/>
<feComposite in2="hardAlpha" operator="out"/>
<feColorMatrix type="matrix" values="0 0 0 0 0 0 0 0 0 0 0 0 0 0 0 0 0 0 0.05 0"/>
<feBlend mode="normal" in2="BackgroundImageFix" result="effect1_dropShadow_2004_74"/>
<feBlend mode="normal" in="SourceGraphic" in2="effect1_dropShadow_2004_74" result="shape"/>
</filter>
<filter id="filter1_d_2004_74" x="-103" y="78.9997" width="1965" height="446.3" filterUnits="userSpaceOnUse" color-interpolation-filters="sRGB">
<feFlood flood-opacity="0" result="BackgroundImageFix"/>
<feColorMatrix in="SourceAlpha" type="matrix" values="0 0 0 0 0 0 0 0 0 0 0 0 0 0 0 0 0 0 127 0" result="hardAlpha"/>
<feOffset/>
<feGaussianBlur stdDeviation="12.5"/>
<feComposite in2="hardAlpha" operator="out"/>
<feColorMatrix type="matrix" values="0 0 0 0 0 0 0 0 0 0 0 0 0 0 0 0 0 0 0.05 0"/>
<feBlend mode="normal" in2="BackgroundImageFix" result="effect1_dropShadow_2004_74"/>
<feBlend mode="normal" in="SourceGraphic" in2="effect1_dropShadow_2004_74" result="shape"/>
</filter>
<linearGradient id="paint0_linear_2004_74" x1="1037.34" y1="831" x2="605.336" y2="147" gradientUnits="userSpaceOnUse">
<stop stop-color="#1DC1E5"/>
<stop offset="0.625" stop-color="#FFEA7A"/>
<stop offset="0.96875" stop-color="white" stop-opacity="0"/>
<stop offset="1" stop-color="white" stop-opacity="0"/>
</linearGradient>
<linearGradient id="paint1_linear_2004_74" x1="720.643" y1="-4.40202" x2="962.657" y2="638.389" gradientUnits="userSpaceOnUse">
<stop stop-color="#1DC1E5"/>
<stop offset="0.625" stop-color="#FFEA7A"/>
<stop offset="0.96875" stop-color="white" stop-opacity="0"/>
</linearGradient>
</defs>
</svg>
