<svg width="26" height="27" viewBox="0 0 26 27" fill="none" xmlns="http://www.w3.org/2000/svg">
<path d="M25.0566 12.491C25.781 11.7459 26.0261 10.6536 25.6902 9.66753C25.3748 8.67817 24.5268 7.9561 23.5049 7.80689L17.9577 6.94814C17.9053 6.93286 17.8625 6.89461 17.8413 6.84404L15.4103 1.63947C14.9748 0.64368 13.9959 0.000651223 12.9147 2.35068e-05C11.8463 -0.00442185 10.8746 0.621954 10.432 1.60043L8.00107 6.80501C7.97425 6.85631 7.92739 6.89403 7.87177 6.9091L2.33745 7.80689C1.31459 7.96023 0.464544 8.67974 0.139246 9.66753C-0.184141 10.6564 0.0649466 11.7442 0.785778 12.491L4.87186 16.7197C4.89565 16.7736 4.89565 16.835 4.87186 16.8889L3.91499 22.7961C3.73342 23.8461 4.1693 24.9075 5.03457 25.5223C5.89984 26.137 7.03966 26.1952 7.96228 25.6716L12.7854 22.9782C12.834 22.9528 12.8919 22.9528 12.9406 22.9782L17.7637 25.6716C18.6872 26.1837 19.8202 26.1203 20.6816 25.5083C21.543 24.8963 21.9815 23.8432 21.811 22.7961L20.9188 16.9149C20.8911 16.8666 20.8911 16.8071 20.9188 16.7588L25.0566 12.491Z" fill="#FFDD6B"/>
</svg>
