<svg width="53" height="53" viewBox="0 0 53 53" fill="none" xmlns="http://www.w3.org/2000/svg">
<path fill-rule="evenodd" clip-rule="evenodd" d="M44.8513 31.0272C44.337 31.3177 43.8427 31.6423 43.3717 31.9988C43.537 32.5969 43.7512 33.1804 44.0121 33.7434L44.0389 33.8085C44.7632 35.5635 45.6524 37.7182 44.3654 39.4851C43.0625 41.2738 40.6775 41.0972 38.7563 40.9205C38.1461 40.8775 37.5336 40.8775 36.9234 40.9205C36.7812 41.286 36.6017 42.0062 36.4708 42.5318L36.4375 42.6651C36.0179 44.5422 35.4659 46.883 33.3238 47.5676C32.9886 47.678 32.6387 47.7375 32.2859 47.7442C30.6527 47.5226 29.1467 46.7423 28.0238 45.5359C27.5519 45.0409 27.0425 44.5831 26.5 44.1667C25.9637 44.5266 25.4544 44.9251 24.9763 45.3592L24.9676 45.3667C23.5337 46.6021 21.7479 48.1406 19.6763 47.5676C17.6004 46.9934 16.9821 44.4759 16.5625 42.5988L16.5293 42.4655L16.5293 42.4655C16.3983 41.9399 16.2188 41.2197 16.0767 40.8542C15.4665 40.8113 14.854 40.8113 14.2438 40.8542C12.3225 41.0309 9.9596 41.2297 8.6346 39.4188C7.34389 37.6548 8.21157 35.5556 8.93097 33.8151L8.98794 33.6772C9.24883 33.1142 9.46302 32.5307 9.62835 31.9326C9.15737 31.5761 8.66307 31.2515 8.14877 30.9609C6.49252 30.0334 4.41669 28.7084 4.41669 26.5001C4.41669 24.2917 6.49252 22.9667 8.14877 22.0834C8.66307 21.7929 9.15737 21.4683 9.62835 21.1117C9.46302 20.5137 9.24883 19.9302 8.98794 19.3672L8.9611 19.3021C8.23682 17.5471 7.34763 15.3924 8.6346 13.6255C9.93752 11.8367 12.3225 12.0134 14.2438 12.1901C14.854 12.233 15.4665 12.233 16.0767 12.1901C16.2188 11.8246 16.3983 11.1044 16.5293 10.5788L16.5625 10.4455C16.9821 8.56841 17.5342 6.22758 19.6763 5.54299C21.7687 4.87429 23.4607 6.33374 24.8759 7.5544L24.9763 7.64091C25.4544 8.07501 25.9637 8.47358 26.5 8.83341C27.0363 8.47358 27.5456 8.07501 28.0238 7.64091L28.0641 7.60617C29.4922 6.37555 31.2455 4.86481 33.3238 5.54299C35.4217 6.22758 36.0179 8.56841 36.4375 10.4455L36.4708 10.5788C36.6017 11.1044 36.7812 11.8246 36.9234 12.1901C37.5336 12.233 38.1461 12.233 38.7563 12.1901C40.6775 12.0134 43.0404 11.8147 44.3654 13.6255C45.6562 15.3895 44.7885 17.4887 44.0691 19.2292L44.0121 19.3672C43.7512 19.9302 43.537 20.5137 43.3717 21.1117C43.8427 21.4683 44.337 21.7929 44.8513 22.0834C46.5075 22.9667 48.5834 24.2917 48.5834 26.5001C48.5834 28.7084 46.5075 30.0334 44.8513 31.0272ZM34.4942 19.2567C35.4414 20.0152 35.5991 21.3958 34.8475 22.3484L26.0142 33.3901C25.6272 33.8826 25.0492 34.1877 24.4242 34.2292H24.2917C23.7047 34.2326 23.1405 34.0022 22.7238 33.5888L18.3071 29.1722C17.4412 28.3062 17.4412 26.9023 18.3071 26.0363C19.173 25.1704 20.577 25.1704 21.4429 26.0363L24.115 28.7084L31.4025 19.6101C32.161 18.6629 33.5416 18.5051 34.4942 19.2567ZM42.5767 25.7492C42.9079 25.948 43.3717 26.2351 43.7471 26.5001C43.3717 26.7651 42.9079 27.0522 42.6429 27.0963C41.1147 27.7521 39.8807 28.9467 39.1759 30.453C38.8545 32.1135 39.153 33.8341 40.015 35.2892L40.4788 36.4597H39.1979C37.5535 36.1004 35.8346 36.3516 34.3617 37.1663C33.0965 38.3086 32.3081 39.8855 32.1534 41.583C32.1199 41.7167 32.0833 41.8695 32.0448 42.0304C31.9814 42.2946 31.9128 42.581 31.8442 42.8417C31.5129 42.5988 31.1596 42.2897 30.9167 42.0688C29.7631 40.8004 28.1992 39.9794 26.5 39.7501C24.7878 40.0641 23.2446 40.9806 22.1496 42.3338C21.9067 42.5547 21.5534 42.8638 21.2221 43.1067C21.1889 42.9806 21.1477 42.8485 21.1064 42.7158C21.0101 42.407 20.9129 42.0951 20.9129 41.848C20.7582 40.1505 19.9698 38.5736 18.7046 37.4313C17.2317 36.6166 15.5128 36.3654 13.8684 36.7247H12.5875L13.0513 35.5542C13.9132 34.0991 14.2118 32.3785 13.8904 30.718C13.1856 29.2117 11.9516 28.0171 10.4234 27.3613C10.0921 27.1626 9.62835 26.8755 9.25294 26.6105C9.62835 26.3455 10.0921 26.0584 10.4234 25.8597C11.9516 25.2039 13.1856 24.0092 13.8904 22.503C14.2118 20.8425 13.9132 19.1219 13.0513 17.6667L12.455 16.4963H13.7359C15.3803 16.8556 17.0992 16.6044 18.5721 15.7897C19.8373 14.6474 20.6257 13.0705 20.7804 11.373C20.8139 11.2393 20.8505 11.0865 20.889 10.9256C20.9524 10.6614 21.021 10.375 21.0896 10.1142C21.4209 10.3572 21.7742 10.6663 22.0171 10.8872C23.1875 12.1148 24.7494 12.8958 26.4338 13.0955C28.1181 12.8958 29.6801 12.1148 30.8504 10.8872C31.0934 10.6663 31.4467 10.3572 31.7779 10.1142C31.8111 10.2404 31.8523 10.3725 31.8937 10.5052C31.9899 10.814 32.0871 11.1259 32.0871 11.373C32.2418 13.0705 33.0303 14.6474 34.2954 15.7897C35.7683 16.6044 37.4873 16.8556 39.1317 16.4963H40.4125L39.9488 17.6667C39.1135 19.0912 38.8158 20.7676 39.1096 22.3926C39.8145 23.8988 41.0484 25.0935 42.5767 25.7492Z" fill="#3FEEAF"/>
</svg>
